# xmcd CD database file
#
# Track frame offsets:
#	150
#	16342
#	23425
#	40960
#	49450
#	61008
#	88350
#	104370
#	122433
#	133740
#	166265
#	172928
#	193758
#	209480
#	226953
#
# Disc length: 3223 seconds
#
# Revision: 0
# Processed by: cddbd v1.5.2PL0 Copyright (c) Steve Scherf et al.
# Submitted via: CDex 1.70beta2
#
DISCID=c60c950f
DTITLE=Quagero Imazawawa - Bassist, Electric
DYEAR=2008
DGENRE=Jazz
TTITLE0=Kurt Weill No Kagami
TTITLE1=Bassist, Electric #01
TTITLE2=Blue Rond A La Turk
TTITLE3=Fabricio
TTITLE4=Ktyusha
TTITLE5=Morpho Raito
TTITLE6=Full Moon
TTITLE7=Electric
TTITLE8=Dream Speed
TTITLE9=Grand Cross
TTITLE10=Moon
TTITLE11=Electricity
TTITLE12=Bad And Beautiful
TTITLE13=Sahara Gin Ari No　Jikan
TTITLE14=Bassist Electric #01
EXTD=YEAR: 2008
EXTT0=
EXTT1=
EXTT2=
EXTT3=
EXTT4=
EXTT5=
EXTT6=
EXTT7=
EXTT8=
EXTT9=
EXTT10=
EXTT11=
EXTT12=
EXTT13=
EXTT14=
PLAYORDER=
